<svg xmlns="http://www.w3.org/2000/svg" xmlns:xlink="http://www.w3.org/1999/xlink" viewBox="0,0,256,256" width="500px" height="500px"><g fill="none" fill-rule="nonzero" stroke="none" stroke-width="1" stroke-linecap="butt" stroke-linejoin="miter" stroke-miterlimit="10" stroke-dasharray="" stroke-dashoffset="0" font-family="none" font-weight="none" font-size="none" text-anchor="none" style="mix-blend-mode: normal"><g transform="scale(2.56,2.56)"><path d="M13,27c-1.10457,0 -2,0.89543 -2,2c0,1.10457 0.89543,2 2,2c1.10457,0 2,-0.89543 2,-2c0,-1.10457 -0.89543,-2 -2,-2z" fill="#a3e63f"></path><path d="M77,12c-0.55228,0 -1,0.44772 -1,1c0,0.55228 0.44772,1 1,1c0.55228,0 1,-0.44772 1,-1c0,-0.55228 -0.44772,-1 -1,-1z" fill="#f1bc19"></path><path d="M50,13c-20.43454,0 -37,16.56546 -37,37c0,20.43454 16.56546,37 37,37c20.43454,0 37,-16.56546 37,-37c0,-20.43454 -16.56546,-37 -37,-37z" fill="#cee1f4"></path><path d="M83,11c-2.20914,0 -4,1.79086 -4,4c0,2.20914 1.79086,4 4,4c2.20914,0 4,-1.79086 4,-4c0,-2.20914 -1.79086,-4 -4,-4z" fill="#f1bc19"></path><path d="M87,22c-1.10457,0 -2,0.89543 -2,2c0,1.10457 0.89543,2 2,2c1.10457,0 2,-0.89543 2,-2c0,-1.10457 -0.89543,-2 -2,-2z" fill="#a3e63f"></path><path d="M81,74c-1.10457,0 -2,0.89543 -2,2c0,1.10457 0.89543,2 2,2c1.10457,0 2,-0.89543 2,-2c0,-1.10457 -0.89543,-2 -2,-2zM15,59c-2.20914,0 -4,1.79086 -4,4c0,2.20914 1.79086,4 4,4c2.20914,0 4,-1.79086 4,-4c0,-2.20914 -1.79086,-4 -4,-4z" fill="#fbcd59"></path><path d="M25,85c-1.10457,0 -2,0.89543 -2,2c0,1.10457 0.89543,2 2,2c1.10457,0 2,-0.89543 2,-2c0,-1.10457 -0.89543,-2 -2,-2z" fill="#a3e63f"></path><path d="M18.5,51c-1.38071,0 -2.5,1.11929 -2.5,2.5c0,1.38071 1.11929,2.5 2.5,2.5c1.38071,0 2.5,-1.11929 2.5,-2.5c0,-1.38071 -1.11929,-2.5 -2.5,-2.5z" fill="#ffffff"></path><path d="M21,66c-0.55228,0 -1,0.44772 -1,1c0,0.55228 0.44772,1 1,1c0.55228,0 1,-0.44772 1,-1c0,-0.55228 -0.44772,-1 -1,-1z" fill="#f1bc19"></path><path d="M80,33c-0.55228,0 -1,0.44772 -1,1c0,0.55228 0.44772,1 1,1c0.55228,0 1,-0.44772 1,-1c0,-0.55228 -0.44772,-1 -1,-1z" fill="#ffffff"></path><path d="M35,72.3c-4.025,0 -7.3,-3.274 -7.3,-7.3v-30c0,-4.025 3.274,-7.3 7.3,-7.3h30c4.025,0 7.3,3.274 7.3,7.3v30c0,4.025 -3.274,7.3 -7.3,7.3z" fill="#ef9922"></path><path d="M65,28.4c3.639,0 6.6,2.961 6.6,6.6v30c0,3.639 -2.961,6.6 -6.6,6.6h-30c-3.639,0 -6.6,-2.961 -6.6,-6.6v-30c0,-3.639 2.961,-6.6 6.6,-6.6h30M65,27h-30c-4.4,0 -8,3.6 -8,8v30c0,4.4 3.6,8 8,8h30c4.4,0 8,-3.6 8,-8v-30c0,-4.4 -3.6,-8 -8,-8z" fill="#472b29"></path><path d="M68.5,47.375c-0.276,0 -0.5,-0.224 -0.5,-0.5v-3.875c0,-0.276 0.224,-0.5 0.5,-0.5c0.276,0 0.5,0.224 0.5,0.5v3.875c0,0.276 -0.224,0.5 -0.5,0.5z" fill="#472b29"></path><g fill="#472b29"><path d="M68.5,40.5c-0.276,0 -0.5,-0.224 -0.5,-0.5v-2c0,-0.276 0.224,-0.5 0.5,-0.5c0.276,0 0.5,0.224 0.5,0.5v2c0,0.276 -0.224,0.5 -0.5,0.5z"></path></g><g fill="#472b29"><path d="M64,69h-28c-2.757,0 -5,-2.243 -5,-5v-28c0,-2.757 2.243,-5 5,-5h25.375c0.276,0 0.5,0.224 0.5,0.5c0,0.276 -0.224,0.5 -0.5,0.5h-25.375c-2.206,0 -4,1.794 -4,4v28c0,2.206 1.794,4 4,4h28c2.206,0 4,-1.794 4,-4v-14.375c0,-0.276 0.224,-0.5 0.5,-0.5c0.276,0 0.5,0.224 0.5,0.5v14.375c0,2.757 -2.243,5 -5,5z"></path></g><g><path d="M34.791,47.61c-0.003,3.157 1.946,6.144 5.297,8.117v0c0,1.705 -0.497,3.593 -1.118,4.795c-0.217,0.42 0.14,0.923 0.61,0.87c3.089,-0.342 6.015,-1.867 7.571,-3.392h1.766c7.802,0 14.126,-4.652 14.126,-10.39c0,-5.738 -6.324,-10.39 -14.126,-10.39c-7.802,0 -14.126,4.652 -14.126,10.39" fill="#fdfcef"></path><path d="M39.515,61.896c-0.362,0 -0.704,-0.18 -0.914,-0.485c-0.23,-0.335 -0.259,-0.765 -0.075,-1.119c0.5,-0.968 1.004,-2.64 1.057,-4.285c-3.371,-2.074 -5.295,-5.121 -5.292,-8.396c0,-6.005 6.561,-10.891 14.626,-10.891c8.065,0 14.626,4.886 14.626,10.891c0,6.005 -6.561,10.889 -14.626,10.889h-1.566c-1.567,1.456 -4.503,3.034 -7.716,3.39c-0.04,0.004 -0.08,0.006 -0.12,0.006zM48.917,37.72c-7.513,0 -13.626,4.437 -13.626,9.891v0c-0.003,2.993 1.838,5.794 5.05,7.686l0.247,0.145v0.286c0,1.673 -0.46,3.645 -1.173,5.024c0.022,0.111 0.058,0.143 0.111,0.145c3.081,-0.341 5.874,-1.879 7.275,-3.253l0.146,-0.143h1.97c7.513,0 13.626,-4.437 13.626,-9.89c0,-5.455 -6.113,-9.891 -13.626,-9.891z" fill="#472b29"></path></g><g><path d="M56.5,50c-3.03757,0 -5.5,2.46243 -5.5,5.5c0,3.03757 2.46243,5.5 5.5,5.5c3.03757,0 5.5,-2.46243 5.5,-5.5c0,-3.03757 -2.46243,-5.5 -5.5,-5.5z" fill="#ee3e54"></path><path d="M56.5,61.5c-3.309,0 -6,-2.691 -6,-6c0,-3.309 2.691,-6 6,-6c3.309,0 6,2.691 6,6c0,3.309 -2.691,6 -6,6zM56.5,50.5c-2.757,0 -5,2.243 -5,5c0,2.757 2.243,5 5,5c2.757,0 5,-2.243 5,-5c0,-2.757 -2.243,-5 -5,-5z" fill="#472b29"></path></g><g fill="#fdfcef"><path d="M59.141,56.085c-0.25,-0.248 -0.549,-0.374 -0.89,-0.374c-0.346,0 -0.647,0.126 -0.896,0.375c-0.25,0.249 -0.376,0.551 -0.376,0.896c0,0.342 0.123,0.641 0.37,0.89c0.247,0.249 0.55,0.375 0.902,0.375c0.349,0 0.649,-0.127 0.895,-0.377c0.247,-0.25 0.37,-0.549 0.37,-0.888c-0.001,-0.345 -0.126,-0.645 -0.375,-0.897zM58.709,56.983c0,0.125 -0.045,0.23 -0.136,0.322c-0.184,0.186 -0.474,0.179 -0.651,0c-0.091,-0.093 -0.136,-0.198 -0.136,-0.322c0,-0.128 0.046,-0.235 0.138,-0.328c0.09,-0.091 0.198,-0.137 0.327,-0.137c0.123,0 0.23,0.046 0.321,0.137c0.092,0.092 0.137,0.2 0.137,0.328zM56.13,54.097c0,-0.349 -0.126,-0.649 -0.376,-0.897c-0.25,-0.247 -0.55,-0.371 -0.895,-0.371c-0.344,0 -0.643,0.125 -0.891,0.371c-0.249,0.248 -0.375,0.55 -0.375,0.897c0,0.342 0.123,0.642 0.37,0.891c0.247,0.251 0.549,0.377 0.896,0.377c0.351,0 0.654,-0.126 0.901,-0.377c0.247,-0.25 0.37,-0.55 0.37,-0.891zM55.323,54.097c0,0.127 -0.045,0.233 -0.135,0.326c-0.182,0.181 -0.466,0.185 -0.653,0c-0.091,-0.093 -0.136,-0.199 -0.136,-0.326c0,-0.128 0.045,-0.235 0.135,-0.327c0.091,-0.09 0.198,-0.135 0.325,-0.135c0.128,0 0.235,0.045 0.328,0.135c0.092,0.092 0.136,0.198 0.136,0.327z"></path><path d="M58.634,52.883c-0.021,-0.034 -0.058,-0.056 -0.098,-0.056h-2.018c-0.064,0 -0.114,0.05 -0.114,0.114v0.579c0,0.064 0.05,0.114 0.114,0.114h0.958l-2.501,4.445c-0.021,0.034 -0.021,0.078 0.001,0.114c0.021,0.034 0.058,0.056 0.098,0.056h0.579c0.041,0 0.079,-0.023 0.101,-0.058l2.882,-5.193c0.019,-0.036 0.019,-0.08 -0.002,-0.115z"></path></g><g fill="#472b29"><path d="M49.5,43.75h-9c-0.138,0 -0.25,-0.112 -0.25,-0.25c0,-0.138 0.112,-0.25 0.25,-0.25h9c0.138,0 0.25,0.112 0.25,0.25c0,0.138 -0.112,0.25 -0.25,0.25z"></path></g><g fill="#472b29"><path d="M44.5,46.75h-6c-0.138,0 -0.25,-0.112 -0.25,-0.25c0,-0.138 0.112,-0.25 0.25,-0.25h6c0.138,0 0.25,0.112 0.25,0.25c0,0.138 -0.112,0.25 -0.25,0.25z"></path></g><g fill="#472b29"><path d="M57.5,46.75h-11c-0.138,0 -0.25,-0.112 -0.25,-0.25c0,-0.138 0.112,-0.25 0.25,-0.25h11c0.138,0 0.25,0.112 0.25,0.25c0,0.138 -0.112,0.25 -0.25,0.25z"></path></g><g fill="#472b29"><path d="M55.5,43.75h-4c-0.138,0 -0.25,-0.112 -0.25,-0.25c0,-0.138 0.112,-0.25 0.25,-0.25h4c0.138,0 0.25,0.112 0.25,0.25c0,0.138 -0.112,0.25 -0.25,0.25z"></path></g><g fill="#472b29"><path d="M48.5,52.75h-7c-0.138,0 -0.25,-0.112 -0.25,-0.25c0,-0.138 0.112,-0.25 0.25,-0.25h7c0.138,0 0.25,0.112 0.25,0.25c0,0.138 -0.112,0.25 -0.25,0.25z"></path></g><g fill="#472b29"><path d="M50.5,49.75h-11c-0.138,0 -0.25,-0.112 -0.25,-0.25c0,-0.138 0.112,-0.25 0.25,-0.25h11c0.138,0 0.25,0.112 0.25,0.25c0,0.138 -0.112,0.25 -0.25,0.25z"></path></g></g></g></svg>